<svg
xmlns="http://www.w3.org/2000/svg"
xmlns:xlink="http://www.w3.org/1999/xlink" version="1.1"
height="200px"
width="200px"
style="font-family: helvetica, sans-serif; "
>
	<a xlink:href="http://www.cbg.ethz.ch" target="_blank">
	<path
		d="M 165.00 100.00 A 65 65 0 0 1 163.90 111.91 L 169.80 113.01 A 71 71 0 0 0 171.00 100.00
	Z" style="fill: rgb(6,161,170)" 
	/>
	</a>
	<a xlink:href="http://www.mhs.biol.ethz.ch/research/ciaudo/" target="_blank">
	<path
		d="M 163.67 113.08 A 65 65 0 0 1 160.19 124.53 L 165.75 126.79 A 71 71 0 0 0 169.55 114.29
	Z" style="fill: rgb(6,161,170)" 
	/>
	</a>
	<a xlink:href="http://www.baubeclab.org" target="_blank">
	<path
		d="M 159.73 125.63 A 65 65 0 0 1 154.02 136.14 L 159.01 139.48 A 71 71 0 0 0 165.25 128.00
	Z" style="fill: rgb(245,196,71)" 
	/>
	</a>
	<a xlink:href="https://www.siaf.uzh.ch/molecular_allergology_katja.html" target="_blank">
	<path
		d="M 153.35 137.13 A 65 65 0 0 1 145.64 146.28 L 149.86 150.55 A 71 71 0 0 0 158.27 140.56
	Z" style="fill: rgb(42,233,245)" 
	/>
	</a>
	<a xlink:href="https://compbiozurich.org/people/Elif-Ozkirimli-Olmez/" target="_blank">
	<path
		d="M 144.78 147.11 A 65 65 0 0 1 135.39 154.52 L 138.66 159.55 A 71 71 0 0 0 148.92 151.46
	Z" style="fill: rgb(245,196,71)" 
	/>
	</a>
	<a xlink:href="http://www.ise.inf.ethz.ch" target="_blank">
	<path
		d="M 134.38 155.16 A 65 65 0 0 1 123.69 160.53 L 125.88 166.11 A 71 71 0 0 0 137.56 160.25
	Z" style="fill: rgb(6,161,170)" 
	/>
	</a>
	<a xlink:href="http://www.physik.uzh.ch/groups/aegerter/team/aegerter.html" target="_blank">
	<path
		d="M 122.57 160.95 A 65 65 0 0 1 111.02 164.06 L 112.04 169.97 A 71 71 0 0 0 124.66 166.58
	Z" style="fill: rgb(245,196,71)" 
	/>
	</a>
	<a xlink:href="http://www.ini.uzh.ch/en/institute/people?uname=rich" target="_blank">
	<path
		d="M 109.84 164.25 A 65 65 0 0 1 97.90 164.97 L 97.71 170.96 A 71 71 0 0 0 110.75 170.18
	Z" style="fill: rgb(183,46,121)" 
	/>
	</a>
	<a xlink:href="http://www.ieu.uzh.ch/staff/professors/shimizu.html" target="_blank">
	<path
		d="M 96.71 164.92 A 65 65 0 0 1 84.87 163.21 L 83.47 169.05 A 71 71 0 0 0 96.40 170.91
	Z" style="fill: rgb(245,196,71)" 
	/>
	</a>
	<a xlink:href="http://www.pelkmanslab.org" target="_blank">
	<path
		d="M 83.71 162.93 A 65 65 0 0 1 72.45 158.87 L 69.91 164.31 A 71 71 0 0 0 82.20 168.73
	Z" style="fill: rgb(245,196,71)" 
	/>
	</a>
	<a xlink:href="http://www.cse-lab.ethz.ch/" target="_blank">
	<path
		d="M 71.37 158.36 A 65 65 0 0 1 61.17 152.12 L 57.58 156.94 A 71 71 0 0 0 68.73 163.74
	Z" style="fill: rgb(6,161,170)" 
	/>
	</a>
	<a xlink:href="http://www.csb.ethz.ch" target="_blank">
	<path
		d="M 60.21 151.40 A 65 65 0 0 1 51.47 143.24 L 46.99 147.23 A 71 71 0 0 0 56.54 156.15
	Z" style="fill: rgb(6,161,170)" 
	/>
	</a>
	<a xlink:href="http://bmi.inf.ethz.ch" target="_blank">
	<path
		d="M 50.68 142.34 A 65 65 0 0 1 43.76 132.59 L 38.57 135.59 A 71 71 0 0 0 46.13 146.25
	Z" style="fill: rgb(6,161,170)" 
	/>
	</a>
	<a xlink:href="http://www.fgcz.uzh.ch" target="_blank">
	<path
		d="M 43.17 131.54 A 65 65 0 0 1 38.35 120.60 L 32.66 122.50 A 71 71 0 0 0 37.92 134.46
	Z" style="fill: rgb(132,184,86)" 
	/>
	</a>
	<a xlink:href="https://www.dqbm.uzh.ch/en/research/groups/bodenmiller.html" target="_blank">
	<path
		d="M 37.98 119.46 A 65 65 0 0 1 35.47 107.77 L 29.51 108.48 A 71 71 0 0 0 32.26 121.25
	Z" style="fill: rgb(245,196,71)" 
	/>
	</a>
	<a xlink:href="http://www.zhaw.ch/fileadmin/php_includes/popup/person-detail.php?kurzz=anis" target="_blank">
	<path
		d="M 35.33 106.58 A 65 65 0 0 1 35.22 94.62 L 29.24 94.12 A 71 71 0 0 0 29.36 107.18
	Z" style="fill: rgb(145,22,59)" 
	/>
	</a>
	<a xlink:href="http://www.imls.uzh.ch/research/robinson.html" target="_blank">
	<path
		d="M 35.33 93.42 A 65 65 0 0 1 37.63 81.69 L 31.88 80.00 A 71 71 0 0 0 29.36 92.82
	Z" style="fill: rgb(245,196,71)" 
	/>
	</a>
	<a xlink:href="http://www.agroscope.admin.ch/agroscope/de/home/ueber-uns/standorte-kontakte/waedenswil.html" target="_blank">
	<path
		d="M 37.98 80.54 A 65 65 0 0 1 42.60 69.51 L 37.30 66.69 A 71 71 0 0 0 32.26 78.75
	Z" style="fill: rgb(245,129,62)" 
	/>
	</a>
	<a xlink:href="https://www.hifo.uzh.ch/en/research/mansuy.html" target="_blank">
	<path
		d="M 43.17 68.46 A 65 65 0 0 1 49.91 58.58 L 45.29 54.75 A 71 71 0 0 0 37.92 65.54
	Z" style="fill: rgb(222,138,27)" 
	/>
	</a>
	<a xlink:href="http://www.fgcz.ethz.ch/people/hrehrauer" target="_blank">
	<path
		d="M 50.68 57.66 A 65 65 0 0 1 59.27 49.34 L 55.51 44.67 A 71 71 0 0 0 46.13 53.75
	Z" style="fill: rgb(132,184,86)" 
	/>
	</a>
	<a xlink:href="http://www.math.ethz.ch/sfs/the-institute/people.html?u=peterbu" target="_blank">
	<path
		d="M 60.21 48.60 A 65 65 0 0 1 70.30 42.18 L 67.56 36.84 A 71 71 0 0 0 56.54 43.85
	Z" style="fill: rgb(6,161,170)" 
	/>
	</a>
	<a xlink:href="http://www.imls.uzh.ch/research/baudis.html" target="_blank">
	<path
		d="M 71.37 41.64 A 65 65 0 0 1 82.55 37.39 L 80.94 31.61 A 71 71 0 0 0 68.73 36.26
	Z" style="fill: rgb(245,196,71)" 
	/>
	</a>
	<a xlink:href="https://www.dmmd.uzh.ch/en/research/baubec/groupmembers/imallona.html" target="_blank">
	<path
		d="M 83.71 37.07 A 65 65 0 0 1 95.51 35.16 L 95.10 29.17 A 71 71 0 0 0 82.20 31.27
	Z" style="fill: rgb(245,196,71)" 
	/>
	</a>
	<a xlink:href="https://www.sib.swiss/directory?cn=abdullah%20kahraman" target="_blank">
	<path
		d="M 96.71 35.08 A 65 65 0 0 1 108.66 35.58 L 109.46 29.63 A 71 71 0 0 0 96.40 29.09
	Z" style="fill: rgb(229,134,229)" 
	/>
	</a>
	<a xlink:href="https://www.ieu.uzh.ch/wagner/" target="_blank">
	<path
		d="M 109.84 35.75 A 65 65 0 0 1 121.45 38.64 L 123.43 32.98 A 71 71 0 0 0 110.75 29.82
	Z" style="fill: rgb(245,196,71)" 
	/>
	</a>
	<a xlink:href="http://www.micro.biol.ethz.ch/research/sunagawa.html" target="_blank">
	<path
		d="M 122.57 39.05 A 65 65 0 0 1 133.36 44.21 L 136.44 39.06 A 71 71 0 0 0 124.66 33.42
	Z" style="fill: rgb(6,161,170)" 
	/>
	</a>
	<a xlink:href="http://www.ebpi.uzh.ch/en/aboutus/departments/biostatistics/teambiostats/held.html" target="_blank">
	<path
		d="M 134.38 44.84 A 65 65 0 0 1 143.91 52.07 L 147.96 47.65 A 71 71 0 0 0 137.56 39.75
	Z" style="fill: rgb(245,196,71)" 
	/>
	</a>
	<a xlink:href="http://www.biochem-caflisch.uzh.ch" target="_blank">
	<path
		d="M 144.78 52.89 A 65 65 0 0 1 152.66 61.89 L 157.52 58.37 A 71 71 0 0 0 148.92 48.54
	Z" style="fill: rgb(245,196,71)" 
	/>
	</a>
	<a xlink:href="https://www.nexus.ethz.ch" target="_blank">
	<path
		d="M 153.35 62.87 A 65 65 0 0 1 159.25 73.27 L 164.72 70.80 A 71 71 0 0 0 158.27 59.44
	Z" style="fill: rgb(221,226,32)" 
	/>
	</a>
	<a xlink:href="http://www.imls.uzh.ch/research/vonmering.html" target="_blank">
	<path
		d="M 159.73 74.37 A 65 65 0 0 1 163.42 85.74 L 169.27 84.43 A 71 71 0 0 0 165.25 72.00
	Z" style="fill: rgb(245,196,71)" 
	/>
	</a>
	<a xlink:href="http://www.imsb.ethz.ch/research/claassen.html" target="_blank">
	<path
		d="M 163.67 86.92 A 65 65 0 0 1 164.99 98.80 L 170.99 98.69 A 71 71 0 0 0 169.55 85.71
	Z" style="fill: rgb(6,161,170)" 
	/>
	</a>
<path d="
	M 40.70,78.72
	C 70.4,89.4 49.4,125.5 43.72,128.32
	A 63,63 0 0,1 42.81,126.43
	C 54.3,121.1 70.7,88.4 41.44,76.76
	A 63,63 0 0,0 40.70,78.72
	Z" style="stroke-width: 1;  fill: rgb(67,236,162); opacity: 0.6;"
/>
<path d="
	M 116.46,160.81
	C 109.9,136.5 80.9,153.4 78.77,159.32
	A 63,63 0 0,1 76.60,158.49
	C 90.6,123.4 108.5,136.8 114.21,161.38
	A 63,63 0 0,0 116.46,160.81
	Z" style="stroke-width: 1;  fill: rgb(62,150,233); opacity: 0.6;"
/>
<path d="
	M 158.64,76.98
	C 135.2,86.2 95.4,156.5 94.84,162.79
	A 63,63 0 0,1 91.38,162.41
	C 94.0,143.7 147.9,84.2 159.83,80.26
	A 63,63 0 0,0 158.64,76.98
	Z" style="stroke-width: 1;  fill: rgb(131,203,5); opacity: 0.6;"
/>
<path d="
	M 74.78,42.27
	C 82.3,59.6 90.8,56.9 86.92,38.37
	A 63,63 0 0,1 89.89,37.82
	C 93.9,62.7 79.8,47.0 77.58,41.13
	A 63,63 0 0,0 74.78,42.27
	Z" style="stroke-width: 1;  fill: rgb(216,117,146); opacity: 0.6;"
/>
<path d="
	M 77.14,158.71
	C 81.7,147.0 75.4,94.5 38.51,86.30
	A 63,63 0 0,1 38.77,85.17
	C 44.9,86.6 80.9,146.6 76.07,158.28
	A 63,63 0 0,0 77.14,158.71
	Z" style="stroke-width: 1;  fill: rgb(76,39,234); opacity: 0.6;"
/>
<path d="
	M 41.15,77.52
	C 70.6,88.8 72.9,73.7 54.78,56.13
	A 63,63 0 0,1 55.93,54.98
	C 60.3,59.5 47.6,78.4 41.75,76.01
	A 63,63 0 0,0 41.15,77.52
	Z" style="stroke-width: 1;  fill: rgb(49,11,92); opacity: 0.6;"
/>
<path d="
	M 162.79,105.10
	C 137.7,103.1 85.5,141.7 79.32,159.51
	A 63,63 0 0,1 76.71,158.54
	C 79.0,152.7 137.5,104.7 162.51,107.87
	A 63,63 0 0,0 162.79,105.10
	Z" style="stroke-width: 1;  fill: rgb(64,38,138); opacity: 0.6;"
/>
<path d="
	M 40.90,78.17
	C 52.7,82.5 78.4,69.0 63.96,48.33
	A 63,63 0 0,1 65.70,47.16
	C 79.4,68.3 47.5,78.6 41.66,76.23
	A 63,63 0 0,0 40.90,78.17
	Z" style="stroke-width: 1;  fill: rgb(1,37,219); opacity: 0.6;"
/>
<path d="
	M 130.22,155.28
	C 121.2,138.7 81.4,132.9 69.07,154.89
	A 63,63 0 0,1 67.07,153.71
	C 86.8,121.5 122.5,145.1 128.16,156.36
	A 63,63 0 0,0 130.22,155.28
	Z" style="stroke-width: 1;  fill: rgb(141,197,6); opacity: 0.6;"
/>
<path d="
	M 138.10,49.83
	C 119.1,74.9 60.6,59.3 56.18,54.74
	A 63,63 0 0,1 57.53,53.47
	C 61.8,58.1 115.8,80.4 139.56,50.97
	A 63,63 0 0,0 138.10,49.83
	Z" style="stroke-width: 1;  fill: rgb(14,198,185); opacity: 0.6;"
/>
<path d="
	M 38.69,114.50
	C 63.2,108.7 123.8,91.8 159.53,79.38
	A 63,63 0 0,1 160.18,81.36
	C 142.1,87.0 44.4,111.2 38.24,112.45
	A 63,63 0 0,0 38.69,114.50
	Z" style="stroke-width: 1;  fill: rgb(245,34,135); opacity: 0.6;"
/>
<path d="
	M 86.58,38.45
	C 94.6,75.4 137.4,142.6 141.61,147.31
	A 63,63 0 0,1 138.93,149.53
	C 123.4,129.7 96.0,75.1 90.00,37.80
	A 63,63 0 0,0 86.58,38.45
	Z" style="stroke-width: 1;  fill: rgb(134,161,49); opacity: 0.6;"
/>
<path d="
	M 130.83,154.94
	C 118.5,133.0 105.3,150.1 106.66,162.65
	A 63,63 0 0,1 103.19,162.92
	C 101.6,131.5 125.0,150.9 127.74,156.56
	A 63,63 0 0,0 130.83,154.94
	Z" style="stroke-width: 1;  fill: rgb(91,168,78); opacity: 0.6;"
/>
<path d="
	M 75.74,41.86
	C 83.0,59.3 123.7,91.5 159.30,78.72
	A 63,63 0 0,1 160.18,81.36
	C 124.1,92.5 91.3,76.3 78.34,40.84
	A 63,63 0 0,0 75.74,41.86
	Z" style="stroke-width: 1;  fill: rgb(250,72,48); opacity: 0.6;"
/>
<path d="
	M 73.93,42.65
	C 76.5,48.4 50.0,93.4 37.54,91.78
	A 63,63 0 0,1 37.96,89.03
	C 56.6,92.3 81.2,53.2 76.50,41.55
	A 63,63 0 0,0 73.93,42.65
	Z" style="stroke-width: 1;  fill: rgb(159,83,249); opacity: 0.6;"
/>
<path d="
	M 162.26,90.40
	C 131.1,95.2 141.3,84.6 159.06,78.07
	A 63,63 0 0,1 159.53,79.38
	C 129.8,89.7 150.0,93.4 162.46,91.78
	A 63,63 0 0,0 162.26,90.40
	Z" style="stroke-width: 1;  fill: rgb(169,136,168); opacity: 0.6;"
/>
<path d="
	M 48.36,63.91
	C 58.7,71.1 69.2,93.6 38.31,87.20
	A 63,63 0 0,1 39.11,83.82
	C 57.4,88.7 55.4,65.0 50.43,61.12
	A 63,63 0 0,0 48.36,63.91
	Z" style="stroke-width: 1;  fill: rgb(92,219,159); opacity: 0.6;"
/>
<path d="
	M 130.73,155.00
	C 115.4,127.5 131.1,95.1 162.25,90.29
	A 63,63 0 0,1 162.53,92.36
	C 143.8,94.7 111.6,122.4 128.89,155.99
	A 63,63 0 0,0 130.73,155.00
	Z" style="stroke-width: 1;  fill: rgb(228,15,233); opacity: 0.6;"
/>
<path d="
	M 147.80,58.96
	C 123.9,79.5 109.5,63.4 115.79,39.01
	A 63,63 0 0,1 118.03,39.63
	C 116.2,45.7 129.6,76.5 149.28,60.75
	A 63,63 0 0,0 147.80,58.96
	Z" style="stroke-width: 1;  fill: rgb(153,189,44); opacity: 0.6;"
/>
<path d="
	M 77.58,41.13
	C 91.0,76.5 121.9,87.6 154.80,68.92
	A 63,63 0 0,1 156.01,71.17
	C 139.2,79.8 90.0,70.1 79.98,40.27
	A 63,63 0 0,0 77.58,41.13
	Z" style="stroke-width: 1;  fill: rgb(5,108,17); opacity: 0.6;"
/>
<path d="
	M 74.25,42.50
	C 84.6,65.5 150.4,101.8 162.96,102.21
	A 63,63 0 0,1 162.76,105.45
	C 125.1,102.2 86.4,64.8 77.25,41.25
	A 63,63 0 0,0 74.25,42.50
	Z" style="stroke-width: 1;  fill: rgb(232,64,121); opacity: 0.6;"
/>
<path d="
	M 115.45,161.08
	C 106.2,124.4 79.8,132.0 66.38,153.28
	A 63,63 0 0,1 64.63,152.14
	C 82.3,126.1 112.1,155.4 113.42,161.55
	A 63,63 0 0,0 115.45,161.08
	Z" style="stroke-width: 1;  fill: rgb(247,62,160); opacity: 0.6;"
/>
<path d="
	M 156.54,127.80
	C 139.6,119.5 73.3,83.3 46.57,66.63
	A 63,63 0 0,1 47.96,64.49
	C 74.0,82.2 122.1,112.0 155.36,130.07
	A 63,63 0 0,0 156.54,127.80
	Z" style="stroke-width: 1;  fill: rgb(24,177,236); opacity: 0.6;"
/>
<path d="
	M 158.77,77.31
	C 152.9,79.6 49.4,125.7 43.83,128.52
	A 63,63 0 0,1 42.62,126.01
	C 65.6,115.6 135.8,88.0 159.72,79.93
	A 63,63 0 0,0 158.77,77.31
	Z" style="stroke-width: 1;  fill: rgb(178,95,173); opacity: 0.6;"
/>
<path d="
	M 162.64,106.72
	C 143.8,104.7 60.7,140.9 56.34,145.42
	A 63,63 0 0,1 55.02,144.11
	C 68.5,130.9 137.4,105.1 162.42,108.56
	A 63,63 0 0,0 162.64,106.72
	Z" style="stroke-width: 1;  fill: rgb(13,198,183); opacity: 0.6;"
/>
<path d="
	M 159.38,78.94
	C 153.4,81.0 110.8,50.8 113.53,38.47
	A 63,63 0 0,1 116.24,39.13
	C 113.0,51.3 148.2,85.3 160.25,81.58
	A 63,63 0 0,0 159.38,78.94
	Z" style="stroke-width: 1;  fill: rgb(16,149,209); opacity: 0.6;"
/>
<path d="
	M 90.12,162.22
	C 94.1,137.3 108.1,69.5 116.13,39.10
	A 63,63 0 0,1 117.92,39.60
	C 114.3,51.7 91.8,143.3 88.29,161.90
	A 63,63 0 0,0 90.12,162.22
	Z" style="stroke-width: 1;  fill: rgb(130,44,111); opacity: 0.6;"
/>
<path d="
	M 41.44,76.76
	C 53.2,81.4 123.8,91.8 159.57,79.49
	A 63,63 0 0,1 160.42,82.14
	C 124.2,92.9 54.0,79.4 42.53,74.20
	A 63,63 0 0,0 41.44,76.76
	Z" style="stroke-width: 1;  fill: rgb(51,17,28); opacity: 0.6;"
/>
<path d="
	M 76.82,41.42
	C 81.5,53.1 127.8,134.3 139.65,148.95
	A 63,63 0 0,1 137.64,150.52
	C 122.6,130.3 81.3,46.5 79.21,40.53
	A 63,63 0 0,0 76.82,41.42
	Z" style="stroke-width: 1;  fill: rgb(75,66,159); opacity: 0.6;"
/>
<path d="
	M 89.20,37.93
	C 91.4,50.3 44.2,89.7 38.05,88.57
	A 63,63 0 0,1 38.27,87.43
	C 56.8,91.2 91.3,44.0 90.35,37.74
	A 63,63 0 0,0 89.20,37.93
	Z" style="stroke-width: 1;  fill: rgb(195,157,54); opacity: 0.6;"
/>
<path d="
	M 55.76,55.15
	C 60.2,59.6 71.3,113.0 42.57,125.91
	A 63,63 0 0,1 41.48,123.34
	C 70.7,111.7 83.1,81.3 57.79,53.23
	A 63,63 0 0,0 55.76,55.15
	Z" style="stroke-width: 1;  fill: rgb(149,43,150); opacity: 0.6;"
/>
<path d="
	M 158.94,77.74
	C 123.6,91.1 85.2,148.2 81.53,160.23
	A 63,63 0 0,1 78.66,159.28
	C 82.9,147.4 142.0,86.4 159.93,80.59
	A 63,63 0 0,0 158.94,77.74
	Z" style="stroke-width: 1;  fill: rgb(245,102,39); opacity: 0.6;"
/>
<path d="
	M 67.07,46.29
	C 76.9,62.4 82.1,147.1 77.68,158.92
	A 63,63 0 0,1 74.68,157.69
	C 87.3,128.8 84.9,72.3 69.88,44.66
	A 63,63 0 0,0 67.07,46.29
	Z" style="stroke-width: 1;  fill: rgb(32,60,18); opacity: 0.6;"
/>
<path d="
	M 75.21,42.08
	C 80.2,53.7 107.6,63.0 112.74,38.30
	A 63,63 0 0,1 115.23,38.87
	C 110.7,57.2 91.0,76.5 77.58,41.13
	A 63,63 0 0,0 75.21,42.08
	Z" style="stroke-width: 1;  fill: rgb(4,255,17); opacity: 0.6;"
/>
<path d="
	M 75.53,41.95
	C 90.2,76.8 100.4,43.3 100.41,37.00
	A 63,63 0 0,1 102.50,37.05
	C 101.7,55.9 88.7,70.6 77.47,41.17
	A 63,63 0 0,0 75.53,41.95
	Z" style="stroke-width: 1;  fill: rgb(89,252,10); opacity: 0.6;"
/>
<path d="
	M 74.68,42.31
	C 82.3,59.6 109.7,76.8 124.36,41.90
	A 63,63 0 0,1 126.28,42.74
	C 115.8,65.6 88.3,70.8 76.60,41.51
	A 63,63 0 0,0 74.68,42.31
	Z" style="stroke-width: 1;  fill: rgb(35,59,244); opacity: 0.6;"
/>
<path d="
	M 76.07,41.72
	C 88.0,70.9 77.5,77.9 55.02,55.89
	A 63,63 0 0,1 56.51,54.42
	C 65.2,63.5 89.0,70.5 78.01,40.96
	A 63,63 0 0,0 76.07,41.72
	Z" style="stroke-width: 1;  fill: rgb(194,184,156); opacity: 0.6;"
/>
<path d="
	M 148.33,140.42
	C 124.2,120.2 90.9,76.5 77.36,41.21
	A 63,63 0 0,1 78.66,40.72
	C 87.2,64.4 137.9,133.2 147.42,141.48
	A 63,63 0 0,0 148.33,140.42
	Z" style="stroke-width: 1;  fill: rgb(152,38,26); opacity: 0.6;"
/>
<path d="
	M 160.76,116.63
	C 130.4,108.3 153.4,81.0 159.38,78.94
	A 63,63 0 0,1 159.75,80.04
	C 153.8,82.0 124.2,107.1 160.45,117.75
	A 63,63 0 0,0 160.76,116.63
	Z" style="stroke-width: 1;  fill: rgb(94,221,86); opacity: 0.6;"
/>
<path d="
	M 76.60,41.51
	C 81.3,53.2 54.3,133.6 49.24,137.31
	A 63,63 0 0,1 47.90,135.42
	C 63.5,124.8 83.0,52.5 78.77,40.68
	A 63,63 0 0,0 76.60,41.51
	Z" style="stroke-width: 1;  fill: rgb(169,119,242); opacity: 0.6;"
/>
<path d="
	M 161.20,114.95
	C 124.5,106.0 72.2,74.3 53.74,57.23
	A 63,63 0 0,1 55.84,55.06
	C 64.7,64.1 130.2,108.9 160.42,117.86
	A 63,63 0 0,0 161.20,114.95
	Z" style="stroke-width: 1;  fill: rgb(129,162,102); opacity: 0.6;"
/>
<path d="
	M 57.02,146.06
	C 61.3,141.5 110.7,57.2 115.23,38.87
	A 63,63 0 0,1 118.14,39.67
	C 112.7,57.8 63.9,135.2 54.86,143.95
	A 63,63 0 0,0 57.02,146.06
	Z" style="stroke-width: 1;  fill: rgb(222,190,203); opacity: 0.6;"
/>
</svg>
