<?xml version="1.0" encoding="UTF-8" standalone="no"?>
<!DOCTYPE svg PUBLIC "-//W3C//DTD SVG 1.1//EN" "http://www.w3.org/Graphics/SVG/1.1/DTD/svg11.dtd">
<svg width="600" height="200" viewBox="0 0 600 200" version="1.1" xmlns="http://www.w3.org/2000/svg" xmlns:xlink="http://www.w3.org/1999/xlink">

	<defs>
		<filter id="map_shadow" x="0" y="0">
			<feOffset result="offOut" in="SourceAlpha" dx="8" dy="8" />
			<feGaussianBlur result="blurOut" in="offOut" stdDeviation="5" />
      <feFlood flood-color="#999999" flood-opacity="0.5" result="offsetColor"/>
      <feComposite in="offsetColor" in2="blurOut" operator="in" result="offsetBlur"/>
			<feBlend in="SourceGraphic" in2="offsetBlur" mode="normal" />
		</filter>

		<style type="text/css">
<![CDATA[
#text { font-family: 'Helvetica Neue', Helvetica, Arial, 'sans-serif'; font-weight:200; font-size:88px; fill:rgb(47,47,47); }
#background { fill: #ffffff }
]]>
		</style>

	</defs>

  <g transform="scale(1)">

		<rect x="0" y="0" height="100%" width="100%" id="background" />
    <text x="30" y="120" id="text">arrayMap</text>

    <g transform="translate(392,55) scale(0.50) matrix(1,0,0,1,-182.533,-156.09) matrix(1,0,0,1,536.3,247.03) ">

      <path id="map" filter="url(#map_shadow)" d="M0,44.884L-1.624,43.502L-4.972,43.139L-6.384,41.492L-7.042,39.309L-6.68,38.231L-5.834,37.42L-5.076,36.075L-4.902,34.453L-4.972,33.149L-4.66,32.107L-3.315,31.25L-2.384,29.812L-2.572,28.231L-3.142,26.575L-3.28,24.874L-1.554,22.814L-1.106,22.087L-0.83,21.053L-0.415,17.377L-0.588,14.927L0.378,11.035L-0.036,9.103L-0.727,8.267L-3.419,6.145L-5.041,3.502L-5.868,2.64L-5.868,2.614L-6.282,2.347L-6.714,2.261L-7.146,2.347L-9.423,3.657L-11.407,5.928L-12.771,8.549L-12.823,10.7L-14.772,10.785L-16.292,10.387L-17.567,10.631L-18.774,12.633L-19.138,14.092L-19.188,15.048L-19.413,15.927L-20.226,17.099L-23.642,18.835L-25.678,19.413L-27.3,19.354L-30.682,18.266L-32.459,17.238L-35.479,14.356L-43.899,11.647L-45.833,10.155L-46.834,8.739L-46.972,7.661L-46.713,6.429L-46.522,3.736L-46.193,2.64L-46.193,1.967L-46.489,1.604L-46.972,1.648L-47.318,1.363L-47.18,0.061L-62.019,-4.623L-63.331,-4.822L-67.437,-4.314L-68.919,-4.701L-70.526,-4.184L-75.324,-4.986L-77.099,-5.504L-77.187,-6.574L-76.272,-7.806L-75.064,-9.051L-74.321,-10.577L-74.356,-13.036L-75.011,-14.872L-75.857,-16.539L-76.479,-18.437L-76.272,-22.32L-74.926,-26.203L-73.632,-28.402L-71.096,-32.673L-68.438,-35.907L-68.128,-36.702L-67.713,-38.737L-67.352,-39.764L-64.313,-43.615L-63.536,-45.372L-63.485,-50.274L-65.729,-52.251L-68.645,-53.589L-70.975,-57.082L-71.562,-59.817L-71.562,-59.825L-93.097,-73.232L-96.151,-73.942L-99.084,-73.942L-100.154,-75.597L-104.503,-75.597L-113.234,-76.582L-114.735,-75.996L-115.978,-74.639L-118.843,-73.725L-121.913,-73.433L-123.829,-73.942L-126.106,-75.641L-127.278,-76.804L-127.278,-77.617L-125.849,-77.952L-127.866,-79.876L-130.438,-81.371L-132.559,-81.465L-133.249,-79.184L-132.612,-78.47L-136.771,-78.408L-136.908,-79.162L-137.115,-80.048L-137.738,-80.818L-138.065,-81.776L-137.806,-82.534L-136.771,-84.105L-136.547,-84.543L-137.081,-85.728L-137.842,-85.872L-138.704,-85.692L-139.53,-85.872L-140.101,-86.796L-140.724,-88.142L-141.465,-89.287L-142.5,-89.637L-143.207,-88.884L-143.604,-86.347L-144.571,-85.708L-145.366,-86.287L-145.64,-87.693L-145.708,-89.204L-145.813,-90.049L-147.279,-90.705L-149.229,-90.815L-150.472,-90.102L-149.747,-88.264L-150.938,-87.66L-155.165,-86.822L-156.028,-86.846L-156.649,-86.475L-157.718,-84.914L-158.099,-84.062L-158.687,-81.741L-159.513,-80.955L-161.499,-79.86L-162.274,-78.98L-162.36,-78.116L-162.033,-77.272L-161.826,-76.288L-162.345,-75.018L-161.101,-74.57L-160.722,-74.509L-158.701,-72.972L-157.08,-72.051L-155.684,-72.113L-154.509,-72.715L-153.438,-73.493L-152.267,-74.076L-148.437,-74.726L-147.347,-74.545L-146.089,-74.028L-145.382,-73.958L-145.813,-71.206L-146.331,-71.463L-146.382,-72.18L-146.47,-72.361L-146.795,-72.352L-147.212,-72.19L-147.504,-71.948L-147.677,-71.309L-147.539,-70.784L-147.366,-70.326L-147.333,-69.92L-147.418,-69.133L-147.383,-68.306L-147.47,-67.444L-147.987,-66.546L-149.039,-66.183L-149.903,-67.255L-150.851,-68.823L-152.06,-69.965L-154.407,-69.721L-156.806,-68.135L-157.718,-66.149L-157.823,-65.588L-160.239,-65.183L-165.26,-65.218L-168.245,-66.011L-169.003,-66.511L-169.557,-67.633L-169.972,-68.754L-170.402,-69.254L-171.317,-69.349L-173.353,-69.972L-174.769,-69.972L-179.013,-69.254L-179.41,-68.987L-179.806,-68.419L-180.324,-67.858L-181.774,-67.427L-183.465,-66.504L-184.121,-66.011L-184.777,-65.244L-185.086,-64.658L-185.449,-64.149L-186.209,-63.63L-189.747,-62.845L-199.961,-62.845L-200.168,-63.337L-200.323,-64.425L-200.583,-65.51L-201.048,-66.011L-206.104,-66.313L-207.209,-66.883L-208.658,-64.649L-209.901,-63.146L-211.385,-62.309L-217.908,-60.948L-219.633,-61.181L-223.705,-63.329L-221.652,-63.313L-220.807,-64.113L-219.771,-67.022L-221.565,-66.83L-225.466,-65.656L-225.586,-65.554L-228.365,-64.58L-230.247,-63.526L-233.68,-60.72L-233.489,-60.643L-232.178,-59.645L-231.919,-59.645L-231.885,-58.488L-232.229,-57.824L-232.85,-57.616L-233.68,-57.791L-234.129,-57.546L-234.231,-57.175L-234.06,-56.71L-233.507,-55.925L-233.421,-55.641L-233.438,-55.328L-233.541,-55.003L-233.68,-54.811L-234.87,-53.726L-235.887,-53.872L-236.924,-54.526L-238.131,-54.95L-239.046,-54.684L-239.029,-53.967L-238.648,-53.258L-238.373,-52.973L-237.994,-52.431L-237.855,-51.783L-238.114,-50.698L-239.667,-48.669L-241.857,-47.788L-247.311,-48.022L-249.382,-47.59L-252.351,-46.295L-252.868,-46.183L-253.489,-46.451L-253.8,-46.868L-254.024,-47.278L-254.352,-47.541L-256.646,-48.264L-258.354,-49.289L-258.805,-51.172L-257.389,-54.46L-259.511,-54.244L-260.563,-54.416L-261.583,-55.003L-263.428,-55.39L-267.345,-54.708L-269.364,-55.003L-270.089,-55.553L-270.813,-55.736L-271.504,-55.553L-272.212,-55.003L-273.679,-54.563L-273.471,-53.267L-272.678,-51.663L-272.281,-50.29L-272.884,-49.316L-274.041,-48.315L-275.317,-47.581L-277.371,-47.125L-277.509,-44.943L-279.511,-43.749L-280.684,-42.235L-281.651,-40.429L-282.047,-38.945L-272.712,-39.869L-271.262,-40.568L-270.089,-39.61L-268.916,-38.542L-268.087,-37.366L-268.708,-36.1L-269.434,-35.632L-270.244,-35.408L-271.055,-34.935L-272.212,-33.382L-272.625,-33.218L-273.334,-33.122L-274.818,-31.602L-275.334,-29.24L-275.007,-26.376L-280.338,-22.468L-282.617,-20.12L-284.1,-17.654L-289.244,-12.897L-291.607,-12.079L-291.521,-10.109L-292.643,-9.526L-292.936,-9.327L-293.229,-8.593L-295.196,-7.885L-295.938,-7.159L-296.991,-5.331L-296.042,-3.201L-297.836,-0.613L-303.082,3.372L-311.537,6.03L-315.334,8.232L-316.507,12.253L-316.179,13.297L-315.125,15.289L-314.885,16.55L-315.005,18.136L-315.437,19.233L-315.99,20.216L-317.232,23.936L-317.334,24.496L-317.128,25.142L-316.714,25.702L-316.128,26.342L-316.093,28.266L-316.387,29.224L-317.265,30.33L-318.095,30.948L-320.718,32.33L-322.771,34.659L-323.547,35.322L-329.173,38.404L-339.733,48.067L-340.786,49.447L-340.544,50.949L-338.646,53.071L-341.424,56.572L-344.15,61.268L-345.049,62.225L-345.359,62.923L-345.359,63.502L-345.186,64.038L-344.997,64.505L-344.945,64.859L-344.945,65.718L-344.772,66.496L-344.926,67.238L-345.825,68.102L-341.597,70.706L-340.441,71.949L-339.492,73.666L-339.372,74.915L-341.907,80.601L-342.184,81.483L-342.736,84.691L-342.771,85.907L-342.701,86.96L-343.046,87.712L-344.772,88.248L-345.22,88.306L-345.704,88.248L-346.325,88.047L-346.462,88.032L-346.602,88.047L-346.722,88.093L-351.433,90.397L-353.331,91.603L-353.642,92.967L-352.813,94.52L-351.433,96.252L-351.674,97.228L-352.261,98.367L-353.315,100.818L-351.433,99.697L-347.861,98.84L-344.289,98.701L-341.614,99.896L-339.078,98.585L-335.058,93.897L-330.036,90.576L-327.999,88.427L-328.414,85.814L-328.966,85.583L-330.277,86.186L-331.105,85.753L-331.433,85.279L-332.175,83.406L-332.227,82.948L-332.953,81.018L-333.28,79.893L-332.849,78.341L-331.208,76.098L-328.966,73.139L-326.412,70.93L-323.996,70.145L-321.407,70.027L-318.853,69.378L-312.158,64.788L-307.137,63.787L-301.908,63.957L-290.209,66.989L-289.019,67.564L-288.293,68.696L-288.12,70.854L-288.691,72.751L-290.762,75.174L-291.175,76.478L-289.676,79.074L-286.896,82.026L-285.102,85.099L-287.897,90.505L-289.244,94.562L-289.967,98.428L-289.278,100.325L-283.03,101.706L-281.84,102.871L-281.925,103.723L-282.479,104.587L-283.099,105.364L-283.462,105.952L-283.237,105.831L-283.099,106.95L-283.083,108.133L-283.204,108.238L-283.169,109.119L-283.324,109.583L-283.272,109.938L-282.582,110.465L-281.84,110.567L-281.237,110.111L-280.684,109.539L-280.028,109.266L-278.233,110.048L-272.918,116.056L-272.539,116.306L-272.264,117.512L-271.366,119.852L-270.813,121.905L-270.383,123.033L-269.847,123.949L-266.328,127.893L-264.498,128.98L-262.083,129.47L-259.511,129.429L-257.147,128.988L-252.316,126.995L-250.106,125.629L-249.072,125.28L-243.17,125.907L-240.651,125.02L-236.009,121.628L-233.68,120.61L-232.023,120.405L-231.16,119.28L-230.401,117.996L-229.089,117.324L-221.082,119.325L-219.857,120.03L-218.667,121.126L-217.2,123.275L-217.079,123.56L-216.112,123.898L-215.458,123.742L-214.871,123.457L-214.111,123.37L-210.314,124.751L-208.175,124.709L-206.76,125.141L-206.312,125.155L-205.328,124.622L-205.138,124.252L-205.208,123.664L-204.965,122.507L-203.137,119.024L-201.048,117.564L-195.475,116.306L-194.733,116.081L-194.164,115.614L-193.196,114.336L-193.128,114.088L-192.37,112.412L-192.231,112.188L-191.816,108.981L-191.799,107.709L-191.645,106.417L-191.075,105.252L-190.299,104.649L-188.659,104.476L-187.813,104.193L-184.379,101.213L-182.671,97.557L-182.878,93.408L-185.225,88.929L-187.054,87.332L-187.33,86.891L-186.985,85.942L-186.209,84.836L-184.673,83.276L-182.981,82.501L-179.565,81.733L-177.943,80.601L-174.078,75.512L-171.868,74.382L-170.954,73.692L-170.179,72.76L-169.694,71.717L-169.729,70.576L-170.247,70.18L-170.56,69.696L-169.901,68.256L-168.228,66.481L-166.106,65.322L-161.722,64.381L-159.464,64.78L-158.375,66.341L-158.065,68.902L-158.03,72.327L-158.29,75.598L-159.566,81.466L-159.825,84.381L-159.513,87.144L-158.651,88.961L-157.219,90.155L-155.165,90.975L-152.99,92.068L-150.767,94.355L-145.813,101.683L-145.053,102.068L-143.534,102.595L-139.878,104.726L-138.497,104.804L-137.927,104.485L-136.702,103.405L-136.22,103.181L-135.579,103.414L-134.992,104.476L-134.39,104.88L-133.146,105.064L-130.731,105.003L-129.559,105.415L-127.557,108.047L-128.711,110.697L-130.955,113.432L-132.335,116.59L-132.63,117.134L-132.769,117.443L-131.422,117.519L-130.214,117.951L-125.726,120.36L-125.175,120.783L-124.675,121.498L-123.897,123.284L-122.552,125.718L-121.896,127.184L-121.446,128.657L-121.312,130.603L-121.636,131.999L-122.103,133.329L-122.397,135.062L-119.291,134.112L-116.72,135.261L-114.356,135.699L-111.853,132.62L-109.886,128.816L-109.594,126.901L-110.474,125.034L-111.232,124.571L-112.923,124.224L-113.698,123.784L-114.407,122.732L-115.063,120.687L-115.908,119.827L-116.081,119.54L-116.133,119.255L-116.081,118.962L-115.908,118.695L-113.32,116.306L-114.718,112.387L-114.372,111.101L-112.37,109.548L-110.645,109.006L-109.903,108.566L-109.282,107.513L-109.023,106.123L-109.196,103.589L-108.885,102.128L-107.435,99.947L-101.741,96.088L-101.12,94.925L-100.741,93.624L-100.31,92.5L-99.464,91.871L-98.516,91.422L-97.602,90.576L-96.893,89.429L-95.721,85.384L-93.425,80.585L-92.94,78.082L-93.045,76.625L-94.097,72.605L-94.114,70.984L-93.907,69.548L-94.063,68.42L-95.115,67.687L-95.874,66.158L-95.254,63.373L-93.872,60.636L-92.39,59.248L-88.56,58.775L-87.007,59.19L-86.937,60.595L-84.933,62.51L-84.349,62.759L-83.485,62.424L-83.105,61.74L-82.827,60.93L-82.312,60.206L-81.035,59.274L-80.413,59.135L-80.172,59.843L-79.688,70.739L-79.81,72.475L-79.653,73.104L-79.085,73.666L-77.358,74.632L-76.653,75.203L-75.101,79.29L-74.099,80.671L-72.425,81.802L-70.611,82.466L-61.604,82.571L-60.121,81.976L-58.93,80.311L-58.897,79.42L-59.017,78.136L-58.862,76.841L-58.017,75.873L-57.151,75.899L-55.255,77.049L-54.253,77.274L-52.613,76.738L-47.386,74.053L-43.97,73.458L-42.433,73.579L-40.829,74.003L-38.861,75.287L-38.343,77.134L-38.311,79.376L-37.792,81.854L-36.652,83.414L-33.546,86.157L-32.753,88.093L-32.684,90.646L-30.097,90.696L-26.782,89.438L-24.573,88.058L-23.556,85.901L-24.558,83.879L-27.802,80.585L-28.509,79.319L-28.818,78.36L-28.784,77.325L-28.369,75.788L-27.782,74.693L-26.144,73.208L-25.574,72.451L-24.987,69.972L-25.558,68.714L-26.921,68.171L-30.439,67.488L-32.733,66.591L-33.962,65.045L-32.58,62.698L-33.271,62.233L-33.649,61.593L-33.823,60.775L-33.927,59.722L-33.581,58.507L-33.581,56.014L-33.46,55.194L-32.787,54.184L-31.097,52.492L-30.439,51.621L-29.474,47.912L-29.128,47.068L-28.369,46.651L-20.948,44.512L-18.932,44.495L-17.671,45.513L-17.532,46.799L-17.948,49.145L-17.603,50.378L-14.357,51.49L-13.755,52.035L-13.341,52.614L-12.84,53.133L-11.96,53.543L-10.94,53.711L-8.216,53.448L-2.59,54.925L-1.175,54.656L-0.071,52.839L0.551,50.018L0.603,47.074L0,44.884Z" style="fill:#eee;stroke:rgb(47,47,47);stroke-width:1px;"/>

      <circle cx="-150" cy="0" r="17" fill="rgb(255,72,64)"/>
      <circle cx="-220" cy="10" r="17" fill="rgb(255,222,64)"/>
      <circle cx="-90" cy="25" r="17" fill="rgb(255,222,64)"/>
      <circle cx="-295" cy="40" r="17" fill="rgb(255,72,64)"/>
      <circle cx="-125" cy="80" r="17" fill="rgb(255,72,64)"/>
      <circle cx="-100" cy="-40" r="17" fill="rgb(32,201,32)"/>
      <circle cx="-210" cy="65" r="17" fill="rgb(32,201,32)"/>
      <circle cx="-250" cy="-25" r="17" fill="rgb(32,201,32)"/>

    </g>
  </g>
</svg>
