<?xml version="1.0" encoding="utf-8"?>
<!-- Generator: Adobe Illustrator 25.0.0, SVG Export Plug-In . SVG Version: 6.00 Build 0)  -->
<svg version="1.1" id="Calque_1" xmlns="http://www.w3.org/2000/svg" xmlns:xlink="http://www.w3.org/1999/xlink" x="0px" y="0px"
	 viewBox="0 0 279 86" style="enable-background:new 0 0 279 86;" xml:space="preserve" width="279" height="86">
<style type="text/css">
	.st0{enable-background:new    ;}
	.st1{fill:#313233;}
	.st2{fill-rule:evenodd;clip-rule:evenodd;fill:url(#Fill-1_1_);}
	.st3{fill-rule:evenodd;clip-rule:evenodd;fill:#FEFEFE;}
</style>
<g class="st0">
	<path class="st1" d="M115.4,62V50.6h3.9c1,0,1.8,0.3,2.4,0.9c0.6,0.6,1,1.3,1,2.2c0,0.9-0.4,1.7-1.1,2.2c1.2,0.5,1.8,1.4,1.8,2.7
		c0,0.9-0.3,1.7-1,2.4s-1.6,1-2.6,1H115.4z M117.3,55.4h2c0.5,0,0.9-0.1,1.2-0.4c0.3-0.3,0.4-0.7,0.4-1.1c0-0.4-0.1-0.8-0.4-1.1
		c-0.3-0.3-0.7-0.4-1.2-0.4h-2V55.4z M117.3,60.3h2.5c0.6,0,1.1-0.1,1.4-0.4s0.5-0.7,0.5-1.2c0-0.5-0.2-0.9-0.5-1.2
		c-0.3-0.3-0.8-0.5-1.4-0.5h-2.5V60.3z"/>
	<path class="st1" d="M128.6,62.2c-1.1,0-2-0.4-2.7-1.2c-0.7-0.8-1.1-1.8-1.1-2.9s0.4-2.1,1.1-2.9c0.7-0.8,1.7-1.2,2.7-1.2
		c0.5,0,1,0.1,1.5,0.4s0.8,0.5,1.1,0.9V54h1.8v8h-1.8v-1.1c-0.2,0.3-0.6,0.6-1.1,0.9S129.1,62.2,128.6,62.2z M127.2,59.8
		c0.4,0.5,1,0.7,1.7,0.7c0.7,0,1.3-0.2,1.7-0.7c0.4-0.5,0.7-1.1,0.7-1.8s-0.2-1.3-0.7-1.8c-0.4-0.5-1-0.7-1.7-0.7
		c-0.7,0-1.3,0.2-1.7,0.7c-0.4,0.5-0.7,1.1-0.7,1.8S126.7,59.3,127.2,59.8z"/>
	<path class="st1" d="M137.8,62.2c-0.7,0-1.4-0.1-2-0.4c-0.6-0.3-1-0.7-1.3-1.3l1.3-0.9c0.2,0.3,0.4,0.6,0.8,0.8s0.7,0.3,1.2,0.3
		c0.3,0,0.6-0.1,0.8-0.2s0.3-0.4,0.3-0.6c0-0.2-0.1-0.4-0.3-0.6c-0.2-0.1-0.5-0.3-1-0.4l-0.7-0.2c-1.4-0.4-2.1-1.2-2.1-2.4
		c0-0.7,0.3-1.2,0.8-1.7s1.2-0.6,2-0.6c1.2,0,2.1,0.5,2.7,1.4l-1.2,0.9c-0.4-0.5-0.9-0.8-1.5-0.8c-0.3,0-0.5,0.1-0.8,0.2
		c-0.2,0.1-0.3,0.3-0.3,0.6c0,0.2,0.1,0.4,0.2,0.5s0.4,0.3,0.8,0.4l0.8,0.2c0.7,0.2,1.3,0.5,1.7,0.9c0.4,0.4,0.6,0.9,0.6,1.5
		c0,0.8-0.3,1.4-0.8,1.8C139.3,61.9,138.7,62.2,137.8,62.2z"/>
	<path class="st1" d="M146.1,62.2c-1.2,0-2.2-0.4-3-1.2s-1.2-1.8-1.2-3c0-1.2,0.4-2.2,1.2-3c0.8-0.8,1.8-1.2,3-1.2
		c1.1,0,2,0.4,2.8,1.1c0.7,0.7,1.1,1.7,1.1,2.9c0,0.2,0,0.4,0,0.6h-6.3c0,0.7,0.3,1.2,0.8,1.6c0.5,0.4,1,0.6,1.7,0.6
		c1,0,1.8-0.4,2.3-1.2l1.3,1C149,61.5,147.8,62.2,146.1,62.2z M143.8,57.1h4.4c-0.1-0.6-0.3-1-0.7-1.3c-0.4-0.3-0.9-0.5-1.4-0.5
		c-0.6,0-1,0.2-1.5,0.5C144.2,56.1,143.9,56.5,143.8,57.1z"/>
	<path class="st1" d="M151.8,62V50h1.8v12H151.8z"/>
	<path class="st1" d="M165.1,62.2c-1.6,0-3-0.6-4.2-1.7c-1.1-1.1-1.7-2.5-1.7-4.2s0.6-3,1.7-4.2c1.1-1.1,2.5-1.7,4.2-1.7
		c1.1,0,2.1,0.3,3,0.8c0.9,0.5,1.6,1.2,2.1,2.1l-1.6,0.9c-0.8-1.3-2-2-3.5-2c-1.1,0-2.1,0.4-2.8,1.2c-0.8,0.8-1.2,1.7-1.2,2.9
		s0.4,2.1,1.2,2.9c0.8,0.8,1.7,1.2,2.8,1.2c1.5,0,2.7-0.7,3.5-2l1.6,0.9c-0.5,0.9-1.2,1.6-2.1,2.1C167.2,61.9,166.2,62.2,165.1,62.2
		z"/>
	<path class="st1" d="M178.4,61c-0.8,0.8-1.8,1.2-3,1.2c-1.2,0-2.2-0.4-3-1.2c-0.8-0.8-1.2-1.8-1.2-3c0-1.2,0.4-2.1,1.2-3
		c0.8-0.8,1.8-1.2,3-1.2c1.2,0,2.2,0.4,3,1.2c0.8,0.8,1.2,1.8,1.2,3C179.6,59.2,179.2,60.1,178.4,61z M175.4,60.5
		c0.7,0,1.3-0.2,1.7-0.7c0.5-0.5,0.7-1.1,0.7-1.8s-0.2-1.3-0.7-1.8c-0.5-0.5-1-0.7-1.7-0.7c-0.7,0-1.3,0.2-1.7,0.7
		c-0.5,0.5-0.7,1.1-0.7,1.8s0.2,1.3,0.7,1.8C174.1,60.3,174.7,60.5,175.4,60.5z"/>
	<path class="st1" d="M191.5,62v-4.5c0-0.7-0.1-1.2-0.4-1.5c-0.2-0.4-0.6-0.5-1.1-0.5c-0.6,0-1,0.2-1.4,0.7
		c-0.3,0.4-0.5,1.1-0.5,1.8V62h-1.8v-4.5c0-0.7-0.1-1.2-0.4-1.5c-0.2-0.4-0.6-0.5-1.1-0.5c-0.6,0-1.1,0.2-1.4,0.7
		c-0.3,0.5-0.5,1.1-0.5,1.9V62h-1.8v-8h1.8v1.1c0.5-0.8,1.2-1.2,2.3-1.2c1.2,0,2,0.5,2.5,1.6c0.2-0.5,0.6-0.9,1-1.2
		c0.5-0.3,1-0.4,1.5-0.4c0.9,0,1.6,0.3,2.1,0.9s0.8,1.4,0.8,2.5V62H191.5z"/>
	<path class="st1" d="M197.3,65.3h-1.8V54h1.8v1.1c0.2-0.3,0.6-0.6,1.1-0.9s1-0.4,1.5-0.4c1.1,0,2,0.4,2.7,1.2
		c0.7,0.8,1.1,1.8,1.1,2.9s-0.4,2.1-1.1,2.9s-1.7,1.2-2.7,1.2c-0.5,0-1-0.1-1.5-0.4s-0.8-0.5-1.1-0.9V65.3z M199.6,60.6
		c0.7,0,1.3-0.2,1.7-0.7s0.7-1.1,0.7-1.8s-0.2-1.3-0.7-1.8c-0.4-0.5-1-0.7-1.7-0.7c-0.7,0-1.3,0.2-1.7,0.7c-0.4,0.5-0.7,1.1-0.7,1.8
		s0.2,1.3,0.7,1.8C198.3,60.3,198.9,60.6,199.6,60.6z"/>
	<path class="st1" d="M208.4,62.2c-0.9,0-1.6-0.3-2.2-0.9s-0.8-1.4-0.8-2.5V54h1.8v4.5c0,0.6,0.1,1.1,0.4,1.5s0.7,0.6,1.2,0.6
		c0.6,0,1.1-0.2,1.4-0.7c0.4-0.5,0.5-1.1,0.5-1.9V54h1.8v8h-1.8v-1.1C210.3,61.7,209.5,62.2,208.4,62.2z"/>
	<path class="st1" d="M218.3,62.1c-0.8,0-1.5-0.2-2-0.7c-0.5-0.5-0.8-1.1-0.8-2v-3.9h-1.7V54h1.7v-2.2h1.8V54h2.3v1.6h-2.3v3.6
		c0,0.5,0.1,0.8,0.3,1c0.2,0.2,0.6,0.3,1,0.3c0.4,0,0.7-0.1,0.9-0.2v1.6C219.3,62,218.8,62.1,218.3,62.1z"/>
	<path class="st1" d="M224.5,62.2c-1.1,0-2-0.4-2.7-1.2s-1.1-1.8-1.1-2.9s0.4-2.1,1.1-2.9c0.7-0.8,1.7-1.2,2.7-1.2
		c0.5,0,1,0.1,1.5,0.4s0.8,0.5,1.1,0.9V54h1.8v8H227v-1.1c-0.2,0.3-0.6,0.6-1.1,0.9S225,62.2,224.5,62.2z M223.1,59.8
		c0.4,0.5,1,0.7,1.7,0.7s1.3-0.2,1.7-0.7s0.7-1.1,0.7-1.8s-0.2-1.3-0.7-1.8c-0.4-0.5-1-0.7-1.7-0.7s-1.3,0.2-1.7,0.7
		c-0.4,0.5-0.7,1.1-0.7,1.8S222.6,59.3,223.1,59.8z"/>
	<path class="st1" d="M234.7,62.1c-0.8,0-1.5-0.2-2-0.7c-0.5-0.5-0.8-1.1-0.8-2v-3.9h-1.7V54h1.7v-2.2h1.8V54h2.3v1.6h-2.3v3.6
		c0,0.5,0.1,0.8,0.3,1c0.2,0.2,0.6,0.3,1,0.3c0.4,0,0.7-0.1,0.9-0.2v1.6C235.6,62,235.1,62.1,234.7,62.1z"/>
	<path class="st1" d="M238.5,52.3c-0.3,0-0.6-0.1-0.8-0.3c-0.2-0.2-0.4-0.5-0.4-0.8c0-0.3,0.1-0.6,0.4-0.8c0.2-0.2,0.5-0.3,0.8-0.3
		c0.3,0,0.6,0.1,0.8,0.3c0.2,0.2,0.3,0.5,0.3,0.8c0,0.3-0.1,0.6-0.3,0.8C239.1,52.1,238.8,52.3,238.5,52.3z M237.6,62v-8h1.8v8
		H237.6z"/>
	<path class="st1" d="M248.4,61c-0.8,0.8-1.8,1.2-3,1.2c-1.2,0-2.2-0.4-3-1.2c-0.8-0.8-1.2-1.8-1.2-3c0-1.2,0.4-2.1,1.2-3
		c0.8-0.8,1.8-1.2,3-1.2c1.2,0,2.2,0.4,3,1.2c0.8,0.8,1.2,1.8,1.2,3C249.6,59.2,249.2,60.1,248.4,61z M245.4,60.5
		c0.7,0,1.3-0.2,1.7-0.7c0.5-0.5,0.7-1.1,0.7-1.8s-0.2-1.3-0.7-1.8c-0.5-0.5-1-0.7-1.7-0.7c-0.7,0-1.3,0.2-1.7,0.7
		c-0.5,0.5-0.7,1.1-0.7,1.8s0.2,1.3,0.7,1.8C244.1,60.3,244.7,60.5,245.4,60.5z"/>
	<path class="st1" d="M251.3,62v-8h1.8v1.1c0.5-0.8,1.3-1.2,2.4-1.2c0.9,0,1.7,0.3,2.2,0.9s0.8,1.4,0.8,2.4V62h-1.8v-4.5
		c0-0.6-0.1-1.1-0.4-1.5c-0.3-0.4-0.7-0.5-1.2-0.5c-0.6,0-1.1,0.2-1.5,0.7c-0.4,0.5-0.6,1.1-0.6,1.9V62H251.3z"/>
	<path class="st1" d="M264.1,62.2c-1.1,0-2-0.4-2.7-1.2s-1.1-1.8-1.1-2.9s0.4-2.1,1.1-2.9c0.7-0.8,1.7-1.2,2.7-1.2
		c0.5,0,1,0.1,1.5,0.4s0.8,0.5,1.1,0.9V54h1.8v8h-1.8v-1.1c-0.2,0.3-0.6,0.6-1.1,0.9S264.7,62.2,264.1,62.2z M262.7,59.8
		c0.4,0.5,1,0.7,1.7,0.7s1.3-0.2,1.7-0.7s0.7-1.1,0.7-1.8s-0.2-1.3-0.7-1.8c-0.4-0.5-1-0.7-1.7-0.7s-1.3,0.2-1.7,0.7
		c-0.4,0.5-0.7,1.1-0.7,1.8S262.3,59.3,262.7,59.8z"/>
	<path class="st1" d="M270.8,62V50h1.8v12H270.8z"/>
</g>
<g class="st0">
	<path class="st1" d="M115.4,82V70.6h3.9c1,0,1.8,0.3,2.4,0.9c0.6,0.6,1,1.3,1,2.2c0,0.9-0.4,1.7-1.1,2.2c1.2,0.5,1.8,1.4,1.8,2.7
		c0,0.9-0.3,1.7-1,2.4s-1.6,1-2.6,1H115.4z M117.3,75.4h2c0.5,0,0.9-0.1,1.2-0.4c0.3-0.3,0.4-0.7,0.4-1.1c0-0.4-0.1-0.8-0.4-1.1
		c-0.3-0.3-0.7-0.4-1.2-0.4h-2V75.4z M117.3,80.3h2.5c0.6,0,1.1-0.1,1.4-0.4s0.5-0.7,0.5-1.2c0-0.5-0.2-0.9-0.5-1.2
		c-0.3-0.3-0.8-0.5-1.4-0.5h-2.5V80.3z"/>
	<path class="st1" d="M126.1,72.3c-0.3,0-0.6-0.1-0.8-0.3c-0.2-0.2-0.4-0.5-0.4-0.8c0-0.3,0.1-0.6,0.4-0.8c0.2-0.2,0.5-0.3,0.8-0.3
		c0.3,0,0.6,0.1,0.8,0.3s0.3,0.5,0.3,0.8c0,0.3-0.1,0.6-0.3,0.8S126.4,72.3,126.1,72.3z M125.2,82v-8h1.8v8H125.2z"/>
	<path class="st1" d="M136,81c-0.8,0.8-1.8,1.2-3,1.2c-1.2,0-2.2-0.4-3-1.2s-1.2-1.8-1.2-3c0-1.2,0.4-2.1,1.2-3
		c0.8-0.8,1.8-1.2,3-1.2c1.2,0,2.2,0.4,3,1.2c0.8,0.8,1.2,1.8,1.2,3C137.2,79.2,136.8,80.1,136,81z M133,80.5c0.7,0,1.3-0.2,1.7-0.7
		c0.5-0.5,0.7-1.1,0.7-1.8s-0.2-1.3-0.7-1.8c-0.5-0.5-1-0.7-1.7-0.7c-0.7,0-1.3,0.2-1.7,0.7c-0.5,0.5-0.7,1.1-0.7,1.8
		s0.2,1.3,0.7,1.8C131.7,80.3,132.3,80.5,133,80.5z"/>
	<path class="st1" d="M138.9,82V70h1.8v12H138.9z"/>
	<path class="st1" d="M149.7,81c-0.8,0.8-1.8,1.2-3,1.2c-1.2,0-2.2-0.4-3-1.2c-0.8-0.8-1.2-1.8-1.2-3c0-1.2,0.4-2.1,1.2-3
		c0.8-0.8,1.8-1.2,3-1.2c1.2,0,2.2,0.4,3,1.2c0.8,0.8,1.2,1.8,1.2,3C150.9,79.2,150.5,80.1,149.7,81z M146.7,80.5
		c0.7,0,1.3-0.2,1.7-0.7c0.5-0.5,0.7-1.1,0.7-1.8s-0.2-1.3-0.7-1.8c-0.5-0.5-1-0.7-1.7-0.7c-0.7,0-1.3,0.2-1.7,0.7
		c-0.5,0.5-0.7,1.1-0.7,1.8s0.2,1.3,0.7,1.8C145.4,80.3,146,80.5,146.7,80.5z"/>
	<path class="st1" d="M156.1,85.5c-0.8,0-1.5-0.1-2.2-0.4c-0.7-0.3-1.2-0.6-1.6-1.1l1.1-1.3c0.7,0.8,1.6,1.2,2.7,1.2
		c0.7,0,1.3-0.2,1.7-0.7c0.5-0.4,0.7-1.1,0.7-1.8v-0.7c-0.3,0.4-0.6,0.7-1.1,0.9c-0.5,0.2-1,0.4-1.5,0.4c-1.1,0-2-0.4-2.7-1.2
		c-0.7-0.8-1.1-1.7-1.1-2.9c0-1.1,0.4-2.1,1.1-2.9c0.7-0.8,1.7-1.2,2.7-1.2c0.5,0,1,0.1,1.5,0.3c0.5,0.2,0.8,0.5,1.1,0.9V74h1.8v7.5
		c0,1.3-0.4,2.3-1.1,3C158.3,85.2,157.3,85.5,156.1,85.5z M154.6,79.6c0.5,0.5,1,0.7,1.7,0.7s1.2-0.2,1.7-0.7c0.5-0.5,0.7-1,0.7-1.8
		s-0.2-1.3-0.7-1.8c-0.5-0.5-1-0.7-1.7-0.7s-1.2,0.2-1.7,0.7s-0.7,1-0.7,1.8S154.1,79.2,154.6,79.6z"/>
	<path class="st1" d="M165.2,85.3h-1.9l1.7-3.8l-3.4-7.6h1.9l2.4,5.7l2.5-5.7h2L165.2,85.3z"/>
	<path class="st1" d="M180.3,82.2c-1.6,0-3-0.6-4.2-1.7c-1.1-1.1-1.7-2.5-1.7-4.2s0.6-3,1.7-4.2c1.1-1.1,2.5-1.7,4.2-1.7
		c1.1,0,2.1,0.3,3,0.8c0.9,0.5,1.6,1.2,2.1,2.1l-1.6,0.9c-0.8-1.3-2-2-3.5-2c-1.1,0-2.1,0.4-2.8,1.2c-0.8,0.8-1.2,1.7-1.2,2.9
		s0.4,2.1,1.2,2.9c0.8,0.8,1.7,1.2,2.8,1.2c1.5,0,2.7-0.7,3.5-2l1.6,0.9c-0.5,0.9-1.2,1.6-2.1,2.1C182.4,81.9,181.4,82.2,180.3,82.2
		z"/>
	<path class="st1" d="M193.6,81c-0.8,0.8-1.8,1.2-3,1.2c-1.2,0-2.2-0.4-3-1.2c-0.8-0.8-1.2-1.8-1.2-3c0-1.2,0.4-2.1,1.2-3
		c0.8-0.8,1.8-1.2,3-1.2c1.2,0,2.2,0.4,3,1.2c0.8,0.8,1.2,1.8,1.2,3C194.8,79.2,194.4,80.1,193.6,81z M190.6,80.5
		c0.7,0,1.3-0.2,1.7-0.7c0.5-0.5,0.7-1.1,0.7-1.8s-0.2-1.3-0.7-1.8c-0.5-0.5-1-0.7-1.7-0.7c-0.7,0-1.3,0.2-1.7,0.7
		c-0.5,0.5-0.7,1.1-0.7,1.8s0.2,1.3,0.7,1.8C189.4,80.3,189.9,80.5,190.6,80.5z"/>
	<path class="st1" d="M196.6,82v-8h1.8v1.1c0.5-0.8,1.3-1.2,2.4-1.2c0.9,0,1.7,0.3,2.2,0.9s0.8,1.4,0.8,2.4V82h-1.8v-4.5
		c0-0.6-0.1-1.1-0.4-1.5c-0.3-0.4-0.7-0.5-1.2-0.5c-0.6,0-1.1,0.2-1.5,0.7c-0.4,0.5-0.6,1.1-0.6,1.9V82H196.6z"/>
	<path class="st1" d="M206.8,82v-6.4h-1.7V74h1.7v-1.3c0-0.9,0.3-1.5,0.8-2s1.2-0.7,2-0.7c0.5,0,0.9,0.1,1.3,0.2v1.6
		c-0.2-0.1-0.6-0.2-0.9-0.2c-0.5,0-0.8,0.1-1,0.3c-0.2,0.2-0.3,0.6-0.3,1V74h2.3v1.6h-2.3V82H206.8z"/>
	<path class="st1" d="M215.6,82.2c-1.2,0-2.2-0.4-3-1.2s-1.2-1.8-1.2-3c0-1.2,0.4-2.2,1.2-3c0.8-0.8,1.8-1.2,3-1.2
		c1.1,0,2,0.4,2.8,1.1c0.7,0.7,1.1,1.7,1.1,2.9c0,0.2,0,0.4,0,0.6h-6.3c0,0.7,0.3,1.2,0.8,1.6c0.5,0.4,1,0.6,1.7,0.6
		c1,0,1.8-0.4,2.3-1.2l1.3,1C218.5,81.5,217.3,82.2,215.6,82.2z M213.3,77.1h4.4c-0.1-0.6-0.3-1-0.7-1.3c-0.4-0.3-0.9-0.5-1.4-0.5
		c-0.6,0-1,0.2-1.5,0.5C213.7,76.1,213.4,76.5,213.3,77.1z"/>
	<path class="st1" d="M221.3,82v-8h1.8v1.4c0.1-0.4,0.4-0.8,0.8-1.1c0.4-0.3,0.8-0.4,1.3-0.4c0.3,0,0.5,0,0.7,0.1v1.8
		c-0.3-0.1-0.5-0.1-0.9-0.1c-0.5,0-1,0.2-1.4,0.6s-0.6,1-0.6,1.8V82H221.3z"/>
	<path class="st1" d="M230.7,82.2c-1.2,0-2.2-0.4-3-1.2s-1.2-1.8-1.2-3c0-1.2,0.4-2.2,1.2-3c0.8-0.8,1.8-1.2,3-1.2
		c1.1,0,2,0.4,2.8,1.1c0.7,0.7,1.1,1.7,1.1,2.9c0,0.2,0,0.4,0,0.6h-6.3c0,0.7,0.3,1.2,0.8,1.6c0.5,0.4,1,0.6,1.7,0.6
		c1,0,1.8-0.4,2.3-1.2l1.3,1C233.6,81.5,232.4,82.2,230.7,82.2z M228.3,77.1h4.4c-0.1-0.6-0.3-1-0.7-1.3c-0.4-0.3-0.9-0.5-1.4-0.5
		c-0.6,0-1,0.2-1.5,0.5C228.7,76.1,228.5,76.5,228.3,77.1z"/>
	<path class="st1" d="M236.4,82v-8h1.8v1.1c0.5-0.8,1.3-1.2,2.4-1.2c0.9,0,1.7,0.3,2.2,0.9s0.8,1.4,0.8,2.4V82h-1.8v-4.5
		c0-0.6-0.1-1.1-0.4-1.5c-0.3-0.4-0.7-0.5-1.2-0.5c-0.6,0-1.1,0.2-1.5,0.7c-0.4,0.5-0.6,1.1-0.6,1.9V82H236.4z"/>
	<path class="st1" d="M249.5,82.2c-1.2,0-2.2-0.4-3-1.2c-0.8-0.8-1.2-1.8-1.2-3s0.4-2.2,1.2-3c0.8-0.8,1.8-1.2,3-1.2
		c0.8,0,1.6,0.2,2.2,0.6c0.7,0.4,1.2,0.9,1.5,1.6l-1.5,0.8c-0.2-0.4-0.5-0.8-0.9-1c-0.4-0.3-0.8-0.4-1.3-0.4c-0.7,0-1.3,0.2-1.7,0.7
		s-0.7,1.1-0.7,1.8s0.2,1.3,0.7,1.8s1,0.7,1.7,0.7c0.5,0,0.9-0.1,1.3-0.4c0.4-0.3,0.7-0.6,0.9-1l1.5,0.8c-0.4,0.7-0.9,1.2-1.5,1.6
		S250.3,82.2,249.5,82.2z"/>
	<path class="st1" d="M258.5,82.2c-1.2,0-2.2-0.4-3-1.2s-1.2-1.8-1.2-3c0-1.2,0.4-2.2,1.2-3c0.8-0.8,1.8-1.2,3-1.2
		c1.1,0,2,0.4,2.8,1.1c0.7,0.7,1.1,1.7,1.1,2.9c0,0.2,0,0.4,0,0.6H256c0,0.7,0.3,1.2,0.8,1.6c0.5,0.4,1,0.6,1.7,0.6
		c1,0,1.8-0.4,2.3-1.2l1.3,1C261.4,81.5,260.1,82.2,258.5,82.2z M256.1,77.1h4.4c-0.1-0.6-0.3-1-0.7-1.3c-0.4-0.3-0.9-0.5-1.4-0.5
		c-0.6,0-1,0.2-1.5,0.5C256.5,76.1,256.2,76.5,256.1,77.1z"/>
</g>
<radialGradient id="Fill-1_1_" cx="115.3098" cy="66.0255" r="0.4859" gradientTransform="matrix(4.885736e-15 79.7901 79.7901 -4.885735e-15 -5199.521 -9158.0342)" gradientUnits="userSpaceOnUse">
	<stop  offset="0" style="stop-color:#F3997B"/>
	<stop  offset="1" style="stop-color:#E30613"/>
</radialGradient>
<path id="Fill-1" class="st2" d="M116.1,10.5c-2.1,0-4.1,0.5-5.8,1.5c0,0,0,0,0,0c-0.9,0.5-2,0.4-2.5-0.2h0
	c-0.2-0.2-0.4-0.4-0.6-0.7h0c-0.7-0.7-0.6-1.8-0.4-2.8c0,0,0,0,0,0c0.1-0.5,0.2-1.1,0.2-1.6c0-3.7-3-6.7-6.7-6.7
	c-3.7,0-6.7,3-6.7,6.7s3,6.7,6.7,6.7c0.5,0,1-0.1,1.4-0.2c0,0,0,0,0,0c1-0.2,2.1-0.1,2.5,0.3c0.3,0.3,0.7,0.7,1,1
	c0.4,0.4,0.5,1.8,0.1,2.6c0,0,0,0.1,0,0.1c-0.8,1.6-1.2,3.4-1.2,5.3c0,0.5,0,1.1,0.1,1.6c0,0,0,0.1,0,0.1c0.4,2.7-0.1,4.3-2.2,5.5
	l-3.1,1.7c-0.6,0.2-1.4,0.3-2.2,0.2c-2.8-1.5-6-2.3-9.4-2.3c-6.8,0-12.7,3.3-16.4,8.4c-2.3-9.7-11-17-21.4-17c-7.4,0-14,3.7-18,9.4
	c0,0,0,0,0,0c-1,1.6-2.5,1.6-3.4,1.1l-3-1.8c-1.1-0.6-1-2.3-0.8-3.9l0,0c0.1-0.5,0.1-1,0.1-1.5c0-6.7-5.4-12.1-12.1-12.1
	S0,17.6,0,24.3s5.4,12.1,12.1,12.1c2.8,0,5.4-1,7.5-2.6c0,0,0.1,0,0.1-0.1c1.4-1.2,2.7-1.3,3.4-0.8l3,1.8c1,0.6,1.9,2.5,1.7,4.4
	c0,0,0,0.1,0,0.1c-0.2,1.2-0.3,2.4-0.3,3.7c0,6.3,2.7,12,6.9,16l0,0c0.1,0.1,0.2,0.2,0.3,0.2c0,0,0,0,0,0c1,0.9,1.4,1.7,1.1,2.3
	l-5.2,4.8c-0.7,0.5-1.6,0.7-2.7,0.4c0,0,0,0,0,0c-0.6-0.2-1.3-0.3-2-0.3c-3.7,0-6.7,3-6.7,6.7c0,3.7,3,6.7,6.7,6.7s6.7-3,6.7-6.7
	c0-0.2,0-0.4,0-0.6l0,0c0,0,0,0,0-0.1c0,0,0,0,0-0.1c-0.2-1.9-0.2-2.7,0.6-3.4c0.1-0.1,0.1-0.1,0.2-0.2l5.2-4.8l0,0
	c0.5-0.5,1.4-0.9,2.5-0.8c2.6,1,5.4,1.6,8.3,1.6c7.7,0,14.4-3.9,18.4-9.9c2.3,8.5,10.1,14.8,19.4,14.8c11.1,0,20.1-9,20.1-20.1
	c0-5-1.8-9.6-4.9-13.1c0,0,0-0.1-0.1-0.1c-0.9-1-0.3-2.1,0.6-2.7l1.5-0.9c1.5-0.8,3.6-0.9,5.1,0.1c0,0,0,0,0.1,0
	c1.9,1.2,4.1,1.9,6.5,1.9c6.7,0,12.1-5.4,12.1-12.1C128.2,16,122.8,10.5,116.1,10.5"/>
<path id="Fill-4" class="st3" d="M119.7,25.4v2h-7.2v-0.7c0-0.3,0-0.6,0.1-0.8c0.1-0.3,0.1-0.5,0.2-0.7c0.1-0.2,0.2-0.4,0.4-0.6
	c0.2-0.2,0.3-0.4,0.4-0.5c0.1-0.1,0.3-0.3,0.5-0.5c0.2-0.2,0.4-0.3,0.6-0.4c0.1-0.1,0.3-0.2,0.6-0.4c0.3-0.2,0.5-0.3,0.6-0.4
	c1.1-0.8,1.7-1.5,1.7-2.2c0-0.4-0.1-0.7-0.4-1c-0.2-0.3-0.6-0.4-1-0.4c-0.5,0-0.8,0.1-1.1,0.4c-0.3,0.3-0.4,0.6-0.4,1.1h-2
	c0-1,0.3-1.9,1-2.5c0.7-0.6,1.6-1,2.6-1c0.9,0,1.7,0.3,2.4,0.9c0.7,0.6,1,1.4,1,2.4c0,0.8-0.2,1.5-0.5,2.1c-0.4,0.5-0.9,1.1-1.7,1.6
	c-0.1,0-0.2,0.2-0.5,0.4c-0.3,0.2-0.5,0.3-0.7,0.4c-0.1,0.1-0.3,0.3-0.5,0.4c-0.2,0.2-0.3,0.3-0.4,0.5H119.7z"/>
<polygon id="Fill-6" class="st3" points="96.9,3.2 96.2,3.2 96.2,4.1 95.4,4.1 95.4,4.8 96.2,4.8 96.2,5.6 96.9,5.6 96.9,4.8 
	97.7,4.8 97.7,4.1 96.9,4.1 "/>
<path id="Fill-8" class="st3" d="M99.9,7.5c0.2,0,0.5-0.1,0.6-0.2l3.3,1.7c0,0,0,0,0,0.1c0,0.5,0.4,1,1,1c0.5,0,1-0.4,1-1
	c0-0.5-0.4-1-1-1c-0.2,0-0.4,0.1-0.6,0.2l-3.3-1.7c0,0,0,0,0-0.1c0-0.3-0.2-0.7-0.4-0.8l0.9-5.5c-0.3,0-0.5-0.1-0.8-0.1l-0.8,5.5
	C99.3,5.6,99,6,98.9,6.4l-5.2,2C93.8,8.7,93.9,9,94,9.2l5.2-2.1C99.4,7.3,99.7,7.5,99.9,7.5"/>
<path id="Fill-10" class="st3" d="M64.3,49.3C63.8,49.8,63,50,62.1,50h-4.8v-5.4h4.8c0.9,0,1.6,0.3,2.2,0.8c0.5,0.5,0.8,1.2,0.8,2
	S64.8,48.8,64.3,49.3L64.3,49.3z M57.3,35.2h3.4c0.8,0,1.5,0.3,2,0.8c0.5,0.5,0.8,1.1,0.8,1.9c0,0.8-0.3,1.4-0.8,1.9
	c-0.5,0.5-1.2,0.7-2,0.7h-3.4V35.2z M80.7,57.1c-2,0-3.8-0.7-5.2-2.2c-1.4-1.5-2.1-3.3-2.1-5.3c0-2.1,0.7-3.9,2.1-5.3
	c1.4-1.5,3.2-2.2,5.2-2.2c2.9,0,5.2,1.3,6.7,4l4.2-2.3c-1-1.9-2.5-3.4-4.5-4.6c-2-1.1-4.1-1.7-6.5-1.7c-3.4,0-6.2,1.2-8.6,3.6
	c-1.2,1.2-2.1,2.6-2.7,4c-0.5-1.3-1.5-2.3-3-3.1c1.2-1.1,1.9-2.5,1.9-4.2c0-1.9-0.7-3.5-2-4.8c-1.4-1.3-3-2-5-2h-8.6v23.6h10
	c2.1,0,3.8-0.7,5.2-2c0.3-0.3,0.6-0.7,0.9-1c0.4,2.6,1.5,4.9,3.4,6.8c2.4,2.4,5.3,3.6,8.6,3.6c2.4,0,4.6-0.6,6.5-1.7
	c1.9-1.1,3.4-2.7,4.4-4.6l-4.2-2.3C85.8,55.8,83.6,57.1,80.7,57.1L80.7,57.1z"/>
<path id="Fill-12" class="st3" d="M96.8,58.9h-2.4c1.6-3.1,2.4-6.3,2.4-9.5c0-3.2-0.8-6.4-2.4-9.5h2.4c1.7,3.1,2.5,6.2,2.5,9.5
	C99.3,52.7,98.5,55.9,96.8,58.9"/>
<path id="Fill-14" class="st3" d="M47.9,52.2h-2.4C43.9,49.1,43,46,43,42.7c0-3.3,0.8-6.4,2.5-9.5h2.4c-1.6,3.1-2.4,6.3-2.4,9.5
	C45.5,45.9,46.3,49.1,47.9,52.2"/>
</svg>
